<svg xmlns="http://www.w3.org/2000/svg" viewBox="0 0 400 400" width="400" height="400">
  <defs>
    <linearGradient id="kbBody" x1="0" y1="0" x2="0" y2="1">
      <stop offset="0%" stop-color="#2a2a2a"/>
      <stop offset="100%" stop-color="#111"/>
    </linearGradient>
    <linearGradient id="keyGrad" x1="0" y1="0" x2="0" y2="1">
      <stop offset="0%" stop-color="#3a3a3a"/>
      <stop offset="100%" stop-color="#252525"/>
    </linearGradient>
    <linearGradient id="keyBacklit" x1="0" y1="0" x2="0" y2="1">
      <stop offset="0%" stop-color="#1a2a4a"/>
      <stop offset="100%" stop-color="#0d1a2e"/>
    </linearGradient>
  </defs>
  <rect width="400" height="400" fill="#f0f4f8"/>
  <!-- Keyboard body shadow -->
  <rect x="30" y="88" width="340" height="220" rx="10" fill="rgba(0,0,0,0.2)" transform="translate(4,5)"/>
  <!-- Keyboard body -->
  <rect x="30" y="88" width="340" height="220" rx="10" fill="url(#kbBody)" stroke="#333" stroke-width="2"/>
  <!-- Backlight glow -->
  <rect x="34" y="92" width="332" height="212" rx="8" fill="rgba(52,120,246,0.04)"/>

  <!-- ROW 1: Function keys (small) -->
  <g fill="url(#keyGrad)" stroke="#555" stroke-width="0.5">
    <rect x="42" y="100" width="20" height="14" rx="2"/>
    <rect x="66" y="100" width="20" height="14" rx="2"/>
    <rect x="90" y="100" width="20" height="14" rx="2"/>
    <rect x="114" y="100" width="20" height="14" rx="2"/>
    <rect x="142" y="100" width="20" height="14" rx="2"/>
    <rect x="166" y="100" width="20" height="14" rx="2"/>
    <rect x="190" y="100" width="20" height="14" rx="2"/>
    <rect x="214" y="100" width="20" height="14" rx="2"/>
    <rect x="242" y="100" width="20" height="14" rx="2"/>
    <rect x="266" y="100" width="20" height="14" rx="2"/>
    <rect x="290" y="100" width="20" height="14" rx="2"/>
    <rect x="314" y="100" width="20" height="14" rx="2"/>
    <rect x="338" y="100" width="22" height="14" rx="2"/>
  </g>
  <g fill="#3478F6" font-family="sans-serif" font-size="5" text-anchor="middle" opacity="0.8">
    <text x="52" y="110">esc</text>
    <text x="76" y="110">F1</text>
    <text x="100" y="110">F2</text>
    <text x="124" y="110">F3</text>
    <text x="152" y="110">F4</text>
    <text x="176" y="110">F5</text>
    <text x="200" y="110">F6</text>
    <text x="224" y="110">F7</text>
    <text x="252" y="110">F8</text>
    <text x="276" y="110">F9</text>
    <text x="300" y="110">F10</text>
    <text x="324" y="110">F11</text>
    <text x="349" y="110">F12</text>
  </g>

  <!-- ROW 2: Number row -->
  <g fill="url(#keyGrad)" stroke="#555" stroke-width="0.5">
    <rect x="42" y="120" width="22" height="18" rx="2"/>
    <rect x="68" y="120" width="22" height="18" rx="2"/>
    <rect x="94" y="120" width="22" height="18" rx="2"/>
    <rect x="120" y="120" width="22" height="18" rx="2"/>
    <rect x="146" y="120" width="22" height="18" rx="2"/>
    <rect x="172" y="120" width="22" height="18" rx="2"/>
    <rect x="198" y="120" width="22" height="18" rx="2"/>
    <rect x="224" y="120" width="22" height="18" rx="2"/>
    <rect x="250" y="120" width="22" height="18" rx="2"/>
    <rect x="276" y="120" width="22" height="18" rx="2"/>
    <rect x="302" y="120" width="22" height="18" rx="2"/>
    <rect x="328" y="120" width="22" height="18" rx="2"/>
    <rect x="354" y="120" width="32" height="18" rx="2"/>
  </g>
  <g fill="#ccc" font-family="monospace" font-size="7" text-anchor="middle">
    <text x="53" y="132">`</text>
    <text x="79" y="132">1</text>
    <text x="105" y="132">2</text>
    <text x="131" y="132">3</text>
    <text x="157" y="132">4</text>
    <text x="183" y="132">5</text>
    <text x="209" y="132">6</text>
    <text x="235" y="132">7</text>
    <text x="261" y="132">8</text>
    <text x="287" y="132">9</text>
    <text x="313" y="132">0</text>
    <text x="339" y="132">-</text>
    <text x="370" y="132">del</text>
  </g>

  <!-- ROW 3: QWERTY -->
  <g fill="url(#keyGrad)" stroke="#555" stroke-width="0.5">
    <rect x="42" y="144" width="30" height="18" rx="2"/>
    <rect x="76" y="144" width="22" height="18" rx="2"/>
    <rect x="102" y="144" width="22" height="18" rx="2"/>
    <rect x="128" y="144" width="22" height="18" rx="2"/>
    <rect x="154" y="144" width="22" height="18" rx="2"/>
    <rect x="180" y="144" width="22" height="18" rx="2"/>
    <rect x="206" y="144" width="22" height="18" rx="2"/>
    <rect x="232" y="144" width="22" height="18" rx="2"/>
    <rect x="258" y="144" width="22" height="18" rx="2"/>
    <rect x="284" y="144" width="22" height="18" rx="2"/>
    <rect x="310" y="144" width="22" height="18" rx="2"/>
    <rect x="336" y="144" width="22" height="18" rx="2"/>
    <rect x="362" y="144" width="24" height="18" rx="2"/>
  </g>
  <g fill="#ccc" font-family="monospace" font-size="7" text-anchor="middle">
    <text x="57" y="156">tab</text>
    <text x="87" y="156">Q</text>
    <text x="113" y="156">W</text>
    <text x="139" y="156">E</text>
    <text x="165" y="156">R</text>
    <text x="191" y="156">T</text>
    <text x="217" y="156">Y</text>
    <text x="243" y="156">U</text>
    <text x="269" y="156">I</text>
    <text x="295" y="156">O</text>
    <text x="321" y="156">P</text>
    <text x="347" y="156">[</text>
    <text x="374" y="156">]</text>
  </g>

  <!-- ROW 4: ASDF -->
  <g fill="url(#keyBacklit)" stroke="#3478F6" stroke-width="0.4" opacity="0.9">
    <rect x="42" y="168" width="34" height="18" rx="2"/>
    <rect x="80" y="168" width="22" height="18" rx="2"/>
    <rect x="106" y="168" width="22" height="18" rx="2"/>
    <rect x="132" y="168" width="22" height="18" rx="2"/>
    <rect x="158" y="168" width="22" height="18" rx="2"/>
    <rect x="184" y="168" width="22" height="18" rx="2"/>
    <rect x="210" y="168" width="22" height="18" rx="2"/>
    <rect x="236" y="168" width="22" height="18" rx="2"/>
    <rect x="262" y="168" width="22" height="18" rx="2"/>
    <rect x="288" y="168" width="22" height="18" rx="2"/>
    <rect x="314" y="168" width="22" height="18" rx="2"/>
    <rect x="340" y="168" width="46" height="18" rx="2"/>
  </g>
  <g fill="#6aafff" font-family="monospace" font-size="7" text-anchor="middle">
    <text x="59" y="180">caps</text>
    <text x="91" y="180">A</text>
    <text x="117" y="180">S</text>
    <text x="143" y="180">D</text>
    <text x="169" y="180">F</text>
    <text x="195" y="180">G</text>
    <text x="221" y="180">H</text>
    <text x="247" y="180">J</text>
    <text x="273" y="180">K</text>
    <text x="299" y="180">L</text>
    <text x="325" y="180">;</text>
    <text x="363" y="180">return</text>
  </g>

  <!-- ROW 5: ZXCV -->
  <g fill="url(#keyGrad)" stroke="#555" stroke-width="0.5">
    <rect x="42" y="192" width="44" height="18" rx="2"/>
    <rect x="90" y="192" width="22" height="18" rx="2"/>
    <rect x="116" y="192" width="22" height="18" rx="2"/>
    <rect x="142" y="192" width="22" height="18" rx="2"/>
    <rect x="168" y="192" width="22" height="18" rx="2"/>
    <rect x="194" y="192" width="22" height="18" rx="2"/>
    <rect x="220" y="192" width="22" height="18" rx="2"/>
    <rect x="246" y="192" width="22" height="18" rx="2"/>
    <rect x="272" y="192" width="22" height="18" rx="2"/>
    <rect x="298" y="192" width="22" height="18" rx="2"/>
    <rect x="324" y="192" width="62" height="18" rx="2"/>
  </g>
  <g fill="#ccc" font-family="monospace" font-size="7" text-anchor="middle">
    <text x="64" y="204">shift</text>
    <text x="101" y="204">Z</text>
    <text x="127" y="204">X</text>
    <text x="153" y="204">C</text>
    <text x="179" y="204">V</text>
    <text x="205" y="204">B</text>
    <text x="231" y="204">N</text>
    <text x="257" y="204">M</text>
    <text x="283" y="204">,</text>
    <text x="309" y="204">.</text>
    <text x="355" y="204">shift</text>
  </g>

  <!-- ROW 6: Bottom row -->
  <g fill="url(#keyGrad)" stroke="#555" stroke-width="0.5">
    <rect x="42" y="216" width="30" height="18" rx="2"/>
    <rect x="76" y="216" width="30" height="18" rx="2"/>
    <rect x="110" y="216" width="22" height="18" rx="2"/>
    <rect x="136" y="216" width="22" height="18" rx="2"/>
    <rect x="162" y="216" width="90" height="18" rx="2"/>
    <rect x="256" y="216" width="22" height="18" rx="2"/>
    <rect x="282" y="216" width="22" height="18" rx="2"/>
    <rect x="308" y="216" width="22" height="18" rx="2"/>
    <rect x="334" y="216" width="22" height="18" rx="2"/>
    <rect x="360" y="216" width="26" height="18" rx="2"/>
  </g>
  <g fill="#ccc" font-family="monospace" font-size="6" text-anchor="middle">
    <text x="57" y="228">fn</text>
    <text x="91" y="228">ctrl</text>
    <text x="121" y="228">opt</text>
    <text x="147" y="228">cmd</text>
    <text x="207" y="228">SPACE</text>
    <text x="267" y="228">cmd</text>
    <text x="293" y="228">opt</text>
    <text x="319" y="227">◀</text>
    <text x="345" y="228">▼▲</text>
    <text x="373" y="227">▶</text>
  </g>
  <!-- Backlight indicator -->
  <circle cx="360" cy="310" r="8" fill="#3478F6" opacity="0.3"/>
  <circle cx="360" cy="310" r="4" fill="#3478F6" opacity="0.8"/>
  <!-- Flex connector -->
  <rect x="160" y="316" width="80" height="18" rx="3" fill="#0d1a0d" stroke="#2a5a2a" stroke-width="1"/>
  <g stroke="#b8860b" stroke-width="1" opacity="0.8">
    <line x1="170" y1="316" x2="170" y2="334"/>
    <line x1="177" y1="316" x2="177" y2="334"/>
    <line x1="184" y1="316" x2="184" y2="334"/>
    <line x1="191" y1="316" x2="191" y2="334"/>
    <line x1="198" y1="316" x2="198" y2="334"/>
    <line x1="205" y1="316" x2="205" y2="334"/>
    <line x1="212" y1="316" x2="212" y2="334"/>
    <line x1="219" y1="316" x2="219" y2="334"/>
    <line x1="226" y1="316" x2="226" y2="334"/>
    <line x1="233" y1="316" x2="233" y2="334"/>
  </g>
  <!-- Label -->
  <text x="200" y="365" text-anchor="middle" fill="#3478F6" font-family="sans-serif" font-size="11" font-weight="600">Laptop Keyboard Replacement (15")</text>
  <text x="200" y="378" text-anchor="middle" fill="#888" font-family="sans-serif" font-size="9">Backlit · Spill-resistant · Chiclet</text>
</svg>
